<svg width="492" height="112" viewBox="0 0 492 112" fill="none" xmlns="http://www.w3.org/2000/svg">
<g filter="url(#filter0_d_202_4)">
<path d="M51.5003 30.3334L70.8128 18.6667L92.2712 32.4168V81.9167L72.9587 95.6667L30.042 67.6667V42.0001L72.9587 68.1668V44.3334L51.5003 30.3334ZM51.5003 30.3334L32.1878 18.6667L10.731 32.6667L10.7295 81.6667L32.1878 95.6667L51.5003 81.6667" stroke="#7C10FF" stroke-width="8" stroke-linecap="round" stroke-linejoin="round"/>
</g>
<path d="M122.257 63H111.547L127.866 15.7273H140.746L157.042 63H146.332L134.49 26.5298H134.121L122.257 63ZM121.587 44.4187H146.886V52.2205H121.587V44.4187ZM172.726 15.7273V63H162.732V15.7273H172.726ZM205.988 15.7273V63H195.993V15.7273H205.988ZM223.86 42.5028V63H214.027V27.5455H223.398V33.8008H223.813C224.598 31.7388 225.914 30.1076 227.761 28.9073C229.607 27.6916 231.846 27.0838 234.478 27.0838C236.94 27.0838 239.086 27.6224 240.918 28.6996C242.749 29.7768 244.172 31.3156 245.188 33.316C246.203 35.3011 246.711 37.6709 246.711 40.4254V63H236.878V42.1797C236.893 40.0099 236.34 38.3172 235.216 37.1016C234.093 35.8705 232.546 35.255 230.577 35.255C229.253 35.255 228.084 35.5397 227.068 36.109C226.068 36.6784 225.283 37.5094 224.714 38.6019C224.16 39.6791 223.875 40.9794 223.86 42.5028ZM273.319 27.5455V34.9318H251.968V27.5455H273.319ZM256.816 19.0511H266.649V52.1051C266.649 53.013 266.787 53.7209 267.064 54.2287C267.341 54.7211 267.726 55.0674 268.218 55.2674C268.726 55.4674 269.311 55.5675 269.972 55.5675C270.434 55.5675 270.896 55.529 271.357 55.4521C271.819 55.3597 272.173 55.2905 272.419 55.2443L273.966 62.5614C273.473 62.7153 272.781 62.8923 271.888 63.0923C270.996 63.3078 269.911 63.4386 268.634 63.4847C266.264 63.5771 264.186 63.2616 262.401 62.5384C260.632 61.8151 259.255 60.6918 258.27 59.1683C257.285 57.6449 256.8 55.7214 256.816 53.3977V19.0511ZM295.502 63.6925C291.855 63.6925 288.715 62.9538 286.084 61.4766C283.468 59.9839 281.452 57.8757 280.036 55.152C278.621 52.4129 277.913 49.1736 277.913 45.4343C277.913 41.7873 278.621 38.5865 280.036 35.832C281.452 33.0775 283.445 30.9309 286.015 29.392C288.6 27.8532 291.631 27.0838 295.109 27.0838C297.448 27.0838 299.626 27.4608 301.642 28.2148C303.673 28.9535 305.442 30.0691 306.95 31.5618C308.474 33.0545 309.659 34.9318 310.505 37.1939C311.352 39.4406 311.775 42.072 311.775 45.0881V47.7887H281.837V41.695H302.519C302.519 40.2792 302.211 39.0251 301.595 37.9325C300.98 36.84 300.126 35.9859 299.033 35.3704C297.956 34.7395 296.702 34.424 295.271 34.424C293.778 34.424 292.455 34.7702 291.301 35.4627C290.162 36.1398 289.269 37.0554 288.623 38.2095C287.977 39.3482 287.646 40.6178 287.631 42.0181V47.8118C287.631 49.5661 287.954 51.0818 288.6 52.359C289.262 53.6362 290.193 54.6211 291.393 55.3136C292.593 56.006 294.017 56.3523 295.663 56.3523C296.756 56.3523 297.756 56.1984 298.664 55.8906C299.572 55.5829 300.349 55.1212 300.995 54.5057C301.642 53.8902 302.134 53.1361 302.472 52.2436L311.567 52.8438C311.105 55.0289 310.159 56.937 308.728 58.5682C307.312 60.1839 305.481 61.4458 303.234 62.3537C301.003 63.2462 298.425 63.6925 295.502 63.6925ZM318.192 63V27.5455H327.725V33.7315H328.094C328.74 31.531 329.825 29.8691 331.349 28.7457C332.872 27.607 334.626 27.0376 336.611 27.0376C337.104 27.0376 337.635 27.0684 338.204 27.13C338.773 27.1915 339.273 27.2762 339.704 27.3839V36.109C339.243 35.9705 338.604 35.8474 337.789 35.7397C336.973 35.632 336.227 35.5781 335.55 35.5781C334.103 35.5781 332.81 35.8936 331.672 36.5245C330.548 37.14 329.656 38.0018 328.994 39.1097C328.348 40.2177 328.025 41.4949 328.025 42.9414V63H318.192ZM378.921 27.5455L366.526 63H355.447L343.051 27.5455H353.438L360.802 52.913H361.171L368.511 27.5455H378.921ZM383.953 63V27.5455H393.786V63H383.953ZM388.893 22.9751C387.431 22.9751 386.177 22.4904 385.131 21.5209C384.099 20.5361 383.584 19.3589 383.584 17.9893C383.584 16.6352 384.099 15.4734 385.131 14.5039C386.177 13.5191 387.431 13.0266 388.893 13.0266C390.355 13.0266 391.601 13.5191 392.632 14.5039C393.679 15.4734 394.202 16.6352 394.202 17.9893C394.202 19.3589 393.679 20.5361 392.632 21.5209C391.601 22.4904 390.355 22.9751 388.893 22.9751ZM417.821 63.6925C414.174 63.6925 411.035 62.9538 408.403 61.4766C405.787 59.9839 403.771 57.8757 402.356 55.152C400.94 52.4129 400.232 49.1736 400.232 45.4343C400.232 41.7873 400.94 38.5865 402.356 35.832C403.771 33.0775 405.764 30.9309 408.334 29.392C410.919 27.8532 413.951 27.0838 417.429 27.0838C419.768 27.0838 421.945 27.4608 423.961 28.2148C425.992 28.9535 427.762 30.0691 429.27 31.5618C430.793 33.0545 431.978 34.9318 432.824 37.1939C433.671 39.4406 434.094 42.072 434.094 45.0881V47.7887H404.156V41.695H424.838C424.838 40.2792 424.53 39.0251 423.915 37.9325C423.299 36.84 422.445 35.9859 421.353 35.3704C420.275 34.7395 419.021 34.424 417.59 34.424C416.097 34.424 414.774 34.7702 413.62 35.4627C412.481 36.1398 411.589 37.0554 410.942 38.2095C410.296 39.3482 409.965 40.6178 409.95 42.0181V47.8118C409.95 49.5661 410.273 51.0818 410.919 52.359C411.581 53.6362 412.512 54.6211 413.712 55.3136C414.913 56.006 416.336 56.3523 417.983 56.3523C419.075 56.3523 420.075 56.1984 420.983 55.8906C421.891 55.5829 422.668 55.1212 423.315 54.5057C423.961 53.8902 424.453 53.1361 424.792 52.2436L433.886 52.8438C433.425 55.0289 432.478 56.937 431.047 58.5682C429.631 60.1839 427.8 61.4458 425.554 62.3537C423.322 63.2462 420.745 63.6925 417.821 63.6925ZM447.251 63L437.603 27.5455H447.551L453.045 51.3665H453.368L459.092 27.5455H468.856L474.673 51.228H474.973L480.374 27.5455H490.3L480.674 63H470.264L464.17 40.7024H463.732L457.638 63H447.251Z" fill="#7C10FF"/>
<path d="M113.136 78.7841V74.7273H132.25V78.7841H125.125V98H120.261V78.7841H113.136ZM133.494 98V80.5455H138.188V83.5909H138.369C138.688 82.5076 139.222 81.6894 139.972 81.1364C140.722 80.5758 141.585 80.2955 142.562 80.2955C142.805 80.2955 143.066 80.3106 143.347 80.3409C143.627 80.3712 143.873 80.4129 144.085 80.4659V84.7614C143.858 84.6932 143.544 84.6326 143.142 84.5795C142.741 84.5265 142.373 84.5 142.04 84.5C141.328 84.5 140.691 84.6553 140.131 84.9659C139.578 85.2689 139.138 85.6932 138.812 86.2386C138.494 86.7841 138.335 87.4129 138.335 88.125V98H133.494ZM151.065 98.3295C149.952 98.3295 148.959 98.1364 148.088 97.75C147.217 97.3561 146.527 96.7765 146.02 96.0114C145.52 95.2386 145.27 94.2765 145.27 93.125C145.27 92.1553 145.448 91.3409 145.804 90.6818C146.16 90.0227 146.645 89.4924 147.259 89.0909C147.872 88.6894 148.569 88.3864 149.349 88.1818C150.137 87.9773 150.963 87.8333 151.827 87.75C152.842 87.6439 153.66 87.5455 154.281 87.4545C154.902 87.3561 155.353 87.2121 155.634 87.0227C155.914 86.8333 156.054 86.553 156.054 86.1818V86.1136C156.054 85.3939 155.827 84.8371 155.372 84.4432C154.925 84.0492 154.289 83.8523 153.463 83.8523C152.592 83.8523 151.899 84.0455 151.384 84.4318C150.868 84.8106 150.527 85.2879 150.361 85.8636L145.884 85.5C146.111 84.4394 146.558 83.5227 147.224 82.75C147.891 81.9697 148.751 81.3712 149.804 80.9545C150.865 80.5303 152.092 80.3182 153.486 80.3182C154.455 80.3182 155.384 80.4318 156.27 80.6591C157.164 80.8864 157.955 81.2386 158.645 81.7159C159.342 82.1932 159.891 82.8068 160.293 83.5568C160.694 84.2992 160.895 85.1894 160.895 86.2273V98H156.304V95.5795H156.168C155.887 96.125 155.512 96.6061 155.043 97.0227C154.573 97.4318 154.009 97.7538 153.349 97.9886C152.69 98.2159 151.929 98.3295 151.065 98.3295ZM152.452 94.9886C153.164 94.9886 153.793 94.8485 154.338 94.5682C154.884 94.2803 155.312 93.8939 155.622 93.4091C155.933 92.9242 156.088 92.375 156.088 91.7614V89.9091C155.937 90.0076 155.728 90.0985 155.463 90.1818C155.205 90.2576 154.914 90.3295 154.588 90.3977C154.262 90.4583 153.937 90.5152 153.611 90.5682C153.285 90.6136 152.99 90.6553 152.724 90.6932C152.156 90.7765 151.66 90.9091 151.236 91.0909C150.812 91.2727 150.482 91.5189 150.247 91.8295C150.012 92.1326 149.895 92.5114 149.895 92.9659C149.895 93.625 150.134 94.1288 150.611 94.4773C151.096 94.8182 151.709 94.9886 152.452 94.9886ZM164.651 98V80.5455H169.491V98H164.651ZM167.082 78.2955C166.363 78.2955 165.745 78.0568 165.23 77.5795C164.723 77.0947 164.469 76.5152 164.469 75.8409C164.469 75.1742 164.723 74.6023 165.23 74.125C165.745 73.6402 166.363 73.3977 167.082 73.3977C167.802 73.3977 168.416 73.6402 168.923 74.125C169.438 74.6023 169.696 75.1742 169.696 75.8409C169.696 76.5152 169.438 77.0947 168.923 77.5795C168.416 78.0568 167.802 78.2955 167.082 78.2955ZM178.21 87.9091V98H173.369V80.5455H177.983V83.625H178.188C178.574 82.6098 179.222 81.8068 180.131 81.2159C181.04 80.6174 182.142 80.3182 183.438 80.3182C184.65 80.3182 185.706 80.5833 186.608 81.1136C187.509 81.6439 188.21 82.4015 188.71 83.3864C189.21 84.3636 189.46 85.5303 189.46 86.8864V98H184.619V87.75C184.627 86.6818 184.354 85.8485 183.801 85.25C183.248 84.6439 182.487 84.3409 181.517 84.3409C180.866 84.3409 180.29 84.4811 179.79 84.7614C179.297 85.0417 178.911 85.4508 178.631 85.9886C178.358 86.5189 178.218 87.1591 178.21 87.9091ZM201.23 98.3409C199.435 98.3409 197.889 97.9773 196.594 97.25C195.306 96.5152 194.313 95.4773 193.616 94.1364C192.92 92.7879 192.571 91.1932 192.571 89.3523C192.571 87.5568 192.92 85.9811 193.616 84.625C194.313 83.2689 195.295 82.2121 196.56 81.4545C197.832 80.697 199.325 80.3182 201.037 80.3182C202.188 80.3182 203.26 80.5038 204.253 80.875C205.253 81.2386 206.124 81.7879 206.866 82.5227C207.616 83.2576 208.2 84.1818 208.616 85.2955C209.033 86.4015 209.241 87.697 209.241 89.1818V90.5114H194.503V87.5114H204.685C204.685 86.8144 204.533 86.197 204.23 85.6591C203.927 85.1212 203.507 84.7008 202.969 84.3977C202.438 84.0871 201.821 83.9318 201.116 83.9318C200.382 83.9318 199.73 84.1023 199.162 84.4432C198.601 84.7765 198.162 85.2273 197.844 85.7955C197.526 86.3561 197.363 86.9811 197.355 87.6705V90.5227C197.355 91.3864 197.514 92.1326 197.832 92.7614C198.158 93.3902 198.616 93.875 199.207 94.2159C199.798 94.5568 200.499 94.7273 201.31 94.7273C201.848 94.7273 202.34 94.6515 202.787 94.5C203.234 94.3485 203.616 94.1212 203.935 93.8182C204.253 93.5152 204.495 93.1439 204.662 92.7045L209.139 93C208.912 94.0758 208.446 95.0152 207.741 95.8182C207.045 96.6136 206.143 97.2348 205.037 97.6818C203.938 98.1212 202.67 98.3409 201.23 98.3409ZM212.401 98V80.5455H217.094V83.5909H217.276C217.594 82.5076 218.128 81.6894 218.878 81.1364C219.628 80.5758 220.491 80.2955 221.469 80.2955C221.711 80.2955 221.973 80.3106 222.253 80.3409C222.533 80.3712 222.779 80.4129 222.991 80.4659V84.7614C222.764 84.6932 222.45 84.6326 222.048 84.5795C221.647 84.5265 221.279 84.5 220.946 84.5C220.234 84.5 219.598 84.6553 219.037 84.9659C218.484 85.2689 218.045 85.6932 217.719 86.2386C217.401 86.7841 217.241 87.4129 217.241 88.125V98H212.401Z" fill="black"/>
<defs>
<filter id="filter0_d_202_4" x="-4" y="0" width="111" height="120" filterUnits="userSpaceOnUse" color-interpolation-filters="sRGB">
<feFlood flood-opacity="0" result="BackgroundImageFix"/>
<feColorMatrix in="SourceAlpha" type="matrix" values="0 0 0 0 0 0 0 0 0 0 0 0 0 0 0 0 0 0 127 0" result="hardAlpha"/>
<feOffset dy="4"/>
<feGaussianBlur stdDeviation="2"/>
<feComposite in2="hardAlpha" operator="out"/>
<feColorMatrix type="matrix" values="0 0 0 0 0 0 0 0 0 0 0 0 0 0 0 0 0 0 0.25 0"/>
<feBlend mode="normal" in2="BackgroundImageFix" result="effect1_dropShadow_202_4"/>
<feBlend mode="normal" in="SourceGraphic" in2="effect1_dropShadow_202_4" result="shape"/>
</filter>
</defs>
</svg>
